<svg xmlns="http://www.w3.org/2000/svg" viewBox="0 0 64 64">
  <rect width="64" height="64" rx="14" fill="#6366f1"/>
  <path d="M22 16c-4 0-6 2-6 6v6c0 3-2 4-4 4 2 0 4 1 4 4v6c0 4 2 6 6 6" fill="none" stroke="#fff" stroke-width="4.5" stroke-linecap="round" stroke-linejoin="round"/>
  <path d="M42 16c4 0 6 2 6 6v6c0 3 2 4 4 4-2 0-4 1-4 4v6c0 4-2 6-6 6" fill="none" stroke="#fff" stroke-width="4.5" stroke-linecap="round" stroke-linejoin="round"/>
  <circle cx="32" cy="32" r="2.5" fill="#fff"/>
</svg>
